PathFileType	4	(X/Y/Z)	/home/nbianco/projects/addbio/data/HamnerRunning2013/Processed/subject19//results/MarkerData/run300.trc
DataRate	CameraRate	NumFrames	NumMarkers	Units	OrigDataRate	OrigDataStartFrame	OrigNumFrames
120.005	120.005	10	42	m	120.005	195	261
Frame#	Time	C7			CLAV			LACR			LASI			LCAL			LFAradius			LFAsuperior			LFAulna			LLEL			LMEL			LMT5			LPSI			LTB1			LTB2			LTB3			LTH1			LTH2			LTH3			LTOE			LUA1			LUA2			LUA3			RACR			RASI			RCAL			RFAradius			RFAsuperior			RFAulna			RLEL			RMEL			RMT5			RPSI			RTB1			RTB2			RTB3			RTH1			RTH2			RTH3			RTOE			RUA1			RUA2			RUA3		
		X1	Y1	Z1	X2	Y2	Z2	X3	Y3	Z3	X4	Y4	Z4	X5	Y5	Z5	X6	Y6	Z6	X7	Y7	Z7	X8	Y8	Z8	X9	Y9	Z9	X10	Y10	Z10	X11	Y11	Z11	X12	Y12	Z12	X13	Y13	Z13	X14	Y14	Z14	X15	Y15	Z15	X16	Y16	Z16	X17	Y17	Z17	X18	Y18	Z18	X19	Y19	Z19	X20	Y20	Z20	X21	Y21	Z21	X22	Y22	Z22	X23	Y23	Z23	X24	Y24	Z24	X25	Y25	Z25	X26	Y26	Z26	X27	Y27	Z27	X28	Y28	Z28	X29	Y29	Z29	X30	Y30	Z30	X31	Y31	Z31	X32	Y32	Z32	X33	Y33	Z33	X34	Y34	Z34	X35	Y35	Z35	X36	Y36	Z36	X37	Y37	Z37	X38	Y38	Z38	X39	Y39	Z39	X40	Y40	Z40	X41	Y41	Z41	X42	Y42	Z42

196	1.775	1.03709	1.47387	-0.307354	1.14913	1.38315	-0.289134	1.05819	1.44818	-0.485855	1.09639	0.956146	-0.437069	0.824404	0.468894	-0.378881	1.05503	1.05161	-0.510886	0.917775	1.18154	-0.577088	0.999989	1.01717	-0.535849	0.849841	1.235	-0.573488	0.83095	1.23318	-0.502566	0.837218	0.274455	-0.466499	0.926779	0.999318	-0.383019	1.1725	0.438721	-0.423018	1.06438	0.452243	-0.464522	0.981501	0.395994	-0.400099	1.07495	0.794113	-0.499111	1.2006	0.745844	-0.487584	1.19719	0.611302	-0.481188	0.870643	0.266395	-0.36288	1.00261	1.3896	-0.53249	0.935508	1.35355	-0.492492	0.956036	1.29751	-0.553085	1.09003	1.41582	-0.119322	1.08431	0.965185	-0.19569	0.726023	0.114905	-0.316856	1.15987	0.979635	-0.110198	1.02863	1.09007	-0.0628776	1.10915	0.931753	-0.117724	0.939913	1.13284	-0.0639706	0.919913	1.13187	-0.129717	0.913553	0.0449833	-0.233699	0.920416	1.002	-0.284599	1.02896	0.337326	-0.282444	0.954528	0.310882	-0.226352	0.912791	0.197543	-0.295113	1.01845	0.805608	-0.152561	1.09257	0.662216	-0.18273	1.03238	0.567404	-0.207088	0.933695	0.0738823	-0.340852	1.06052	1.32665	-0.0813569	1.05954	1.2383	-0.0990331	0.971089	1.24399	-0.0817573
197	1.78333	1.03686	1.47912	-0.307376	1.14926	1.38916	-0.291198	1.05455	1.45417	-0.485641	1.09624	0.961658	-0.437006	0.838316	0.451911	-0.378758	1.04886	1.0612	-0.515489	0.909151	1.19112	-0.575447	0.993276	1.02662	-0.538334	0.841596	1.24441	-0.568886	0.82529	1.24209	-0.497187	0.865656	0.259396	-0.467271	0.927119	1.00485	-0.382422	1.18875	0.445672	-0.423282	1.07959	0.452282	-0.464664	1.00054	0.390277	-0.400354	1.07723	0.801304	-0.500155	1.20426	0.757568	-0.487873	1.20548	0.623462	-0.482714	0.899749	0.253401	-0.363732	0.997452	1.39712	-0.531239	0.930837	1.36155	-0.489685	0.949272	1.30559	-0.551266	1.09329	1.4224	-0.120237	1.08514	0.967913	-0.195362	0.703777	0.122655	-0.314853	1.17265	0.995138	-0.113915	1.03727	1.09828	-0.0624146	1.1244	0.945128	-0.119816	0.946754	1.13792	-0.0622965	0.925374	1.1361	-0.1278	0.88825	0.0446727	-0.233756	0.921272	1.0072	-0.284216	1.00875	0.340457	-0.28187	0.934061	0.315231	-0.225838	0.891538	0.201996	-0.293322	1.01424	0.809841	-0.153083	1.08259	0.66403	-0.184042	1.01858	0.571609	-0.206989	0.909358	0.0748684	-0.340298	1.06514	1.33306	-0.0818402	1.065	1.24488	-0.098777	0.976529	1.24959	-0.0801536
198	1.79167	1.03674	1.48515	-0.307514	1.14946	1.396	-0.293339	1.05111	1.46097	-0.485396	1.09657	0.968049	-0.436884	0.853166	0.43369	-0.378811	1.04333	1.0719	-0.51923	0.901502	1.20161	-0.57367	0.987487	1.03716	-0.540729	0.834259	1.25446	-0.564516	0.820107	1.25165	-0.492161	0.89552	0.24396	-0.46747	0.928061	1.01103	-0.381799	1.20416	0.452842	-0.423231	1.09436	0.451797	-0.464744	1.01952	0.384247	-0.400546	1.07991	0.809331	-0.5013	1.20772	0.769666	-0.487872	1.21279	0.63588	-0.484155	0.929795	0.240393	-0.364244	0.992629	1.40549	-0.530056	0.926596	1.37023	-0.487104	0.943119	1.31441	-0.549464	1.09628	1.42957	-0.121454	1.08644	0.971062	-0.194901	0.682685	0.131826	-0.31274	1.18395	1.01161	-0.117872	1.04508	1.10753	-0.0618662	1.13819	0.95967	-0.121854	0.953176	1.14405	-0.0603832	0.931073	1.14185	-0.125843	0.863125	0.0446139	-0.233525	0.922577	1.01306	-0.283485	0.989095	0.345068	-0.281483	0.914327	0.320604	-0.225447	0.871005	0.207685	-0.291653	1.0106	0.814783	-0.153712	1.07341	0.666914	-0.185612	1.0055	0.577104	-0.206844	0.885436	0.0758372	-0.339574	1.06937	1.34024	-0.0823822	1.06994	1.25218	-0.098979	0.981701	1.25608	-0.0783794
199	1.8	1.03671	1.49181	-0.307687	1.14968	1.40349	-0.295475	1.04795	1.46838	-0.485091	1.09729	0.975205	-0.43683	0.869097	0.414484	-0.379077	1.03842	1.08326	-0.522087	0.894819	1.21269	-0.571807	0.982465	1.04839	-0.542903	0.827807	1.26493	-0.560411	0.815491	1.2617	-0.487576	0.926868	0.228442	-0.467054	0.929496	1.0178	-0.381182	1.21868	0.459745	-0.422728	1.10883	0.450563	-0.464726	1.0387	0.377884	-0.400666	1.08301	0.818342	-0.502546	1.21094	0.781917	-0.487535	1.21904	0.648248	-0.485449	0.960783	0.227674	-0.364385	0.98819	1.41451	-0.52886	0.92288	1.37947	-0.48472	0.937652	1.3238	-0.547714	1.09906	1.43719	-0.122914	1.08821	0.974979	-0.194475	0.663026	0.14234	-0.310661	1.19377	1.02873	-0.121998	1.05211	1.11762	-0.061315	1.1505	0.974973	-0.123784	0.959118	1.1511	-0.0583289	0.936972	1.14891	-0.12396	0.83824	0.0448192	-0.233069	0.924343	1.01944	-0.282432	0.970259	0.351045	-0.280908	0.895429	0.327108	-0.224765	0.851374	0.214438	-0.290025	1.00793	0.820286	-0.154378	1.06517	0.670823	-0.187085	0.993268	0.5837	-0.206538	0.861999	0.0766315	-0.338776	1.07321	1.34808	-0.0829488	1.07434	1.26003	-0.0995704	0.986554	1.26329	-0.0766671
200	1.80833	1.03676	1.49889	-0.307867	1.1499	1.41141	-0.297538	1.04511	1.47621	-0.484753	1.09827	0.98305	-0.436934	0.886244	0.394525	-0.37958	1.03411	1.095	-0.524308	0.888988	1.22406	-0.569936	0.978119	1.05994	-0.544748	0.822117	1.27562	-0.556564	0.811467	1.27207	-0.483419	0.959558	0.213128	-0.466038	0.931189	1.02505	-0.380509	1.23227	0.466193	-0.42182	1.12315	0.448517	-0.464618	1.05828	0.371174	-0.400685	1.08646	0.828393	-0.503899	1.2138	0.793997	-0.48688	1.22405	0.660139	-0.486447	0.992716	0.21558	-0.364009	0.984188	1.42392	-0.527584	0.919711	1.38916	-0.482467	0.932847	1.33357	-0.546062	1.10172	1.44515	-0.124466	1.0904	0.97973	-0.194304	0.645049	0.154	-0.308672	1.20216	1.04617	-0.126208	1.05843	1.1284	-0.0608282	1.16138	0.990681	-0.125569	0.964537	1.15893	-0.0562132	0.942656	1.15688	-0.122116	0.813642	0.0452162	-0.232541	0.926579	1.02618	-0.281152	0.952465	0.358164	-0.279749	0.877494	0.334807	-0.223367	0.832972	0.221991	-0.288141	1.00645	0.826236	-0.154962	1.05774	0.675578	-0.188289	0.981937	0.591178	-0.205925	0.839083	0.077164	-0.338042	1.07675	1.35643	-0.0835377	1.07826	1.26825	-0.10037	0.991048	1.27112	-0.0751282
201	1.81667	1.03686	1.50613	-0.30809	1.15013	1.41957	-0.299495	1.04261	1.48421	-0.484418	1.09942	0.991489	-0.437228	0.904751	0.373998	-0.380219	1.03039	1.1069	-0.52616	0.88384	1.23543	-0.568141	0.97441	1.07154	-0.546226	0.817077	1.28633	-0.55299	0.808006	1.2826	-0.479615	0.993279	0.198252	-0.464519	0.932864	1.03269	-0.379641	1.24489	0.472212	-0.420798	1.13743	0.445754	-0.464472	1.07834	0.364167	-0.40058	1.09017	0.839343	-0.505382	1.21621	0.805561	-0.486051	1.22762	0.671084	-0.486957	1.02557	0.20438	-0.363033	0.980675	1.43346	-0.526231	0.917072	1.39913	-0.480301	0.928623	1.34353	-0.544549	1.10435	1.45338	-0.12595	1.0929	0.985045	-0.194694	0.628928	0.166562	-0.306719	1.20918	1.06355	-0.130385	1.0641	1.13974	-0.0604316	1.17097	1.00649	-0.127227	0.969436	1.16737	-0.0540883	0.947704	1.16541	-0.120226	0.789363	0.0457665	-0.232077	0.929253	1.03308	-0.279756	0.935857	0.366096	-0.277797	0.860629	0.343545	-0.221099	0.816111	0.230055	-0.285698	1.00602	0.832538	-0.155334	1.05092	0.680919	-0.189206	0.971498	0.599313	-0.204898	0.816709	0.0774898	-0.337435	1.08009	1.36511	-0.0841406	1.08177	1.27672	-0.101155	0.995163	1.27947	-0.0737361
202	1.825	1.03703	1.51326	-0.308428	1.15037	1.42773	-0.30134	1.04044	1.49212	-0.484078	1.10068	1.00033	-0.437698	0.924764	0.353075	-0.380725	1.0272	1.11877	-0.527772	0.879208	1.24656	-0.566486	0.971301	1.08302	-0.547375	0.812631	1.29692	-0.549738	0.805034	1.29314	-0.47607	1.02763	0.183939	-0.462657	0.934342	1.04058	-0.378467	1.25646	0.477841	-0.420081	1.15163	0.44246	-0.464377	1.0988	0.356979	-0.400395	1.09396	0.850794	-0.506923	1.2181	0.816331	-0.485312	1.22959	0.680717	-0.486836	1.05925	0.194183	-0.361624	0.977675	1.44291	-0.524879	0.914925	1.40917	-0.478218	0.924882	1.35348	-0.543195	1.10694	1.46177	-0.12732	1.09556	0.990539	-0.19597	0.614731	0.179799	-0.30464	1.21495	1.08055	-0.134388	1.06919	1.15148	-0.06012	1.1794	1.02212	-0.128846	0.973858	1.17622	-0.0519829	0.951952	1.17427	-0.118244	0.765462	0.0465764	-0.231701	0.932251	1.03999	-0.278299	0.9205	0.374481	-0.275128	0.844885	0.352944	-0.218162	0.800898	0.238378	-0.28257	1.00634	0.839051	-0.155415	1.04455	0.686583	-0.189868	0.9619	0.607879	-0.203477	0.794901	0.0778383	-0.33687	1.08332	1.37399	-0.0847293	1.08493	1.28533	-0.101753	0.998917	1.28829	-0.072395
203	1.83333	1.0373	1.52009	-0.308927	1.15064	1.43567	-0.303075	1.03857	1.49968	-0.483682	1.10203	1.00928	-0.438292	0.946392	0.331983	-0.380778	1.02449	1.13042	-0.529153	0.874975	1.25725	-0.565004	0.968731	1.09422	-0.548265	0.808742	1.30721	-0.546841	0.802454	1.30352	-0.472733	1.06222	0.170193	-0.460613	0.935644	1.04855	-0.377011	1.26692	0.482986	-0.420027	1.16559	0.438825	-0.464445	1.11956	0.34974	-0.400276	1.09754	0.86215	-0.50824	1.21948	0.826136	-0.484912	1.22998	0.688905	-0.486075	1.09356	0.18494	-0.360176	0.975166	1.45209	-0.523629	0.913229	1.41901	-0.476241	0.921541	1.36325	-0.54201	1.10946	1.47019	-0.128672	1.09829	0.995953	-0.19825	0.602422	0.193561	-0.302209	1.21964	1.09687	-0.138111	1.07373	1.16339	-0.0598858	1.18681	1.03726	-0.130572	0.977871	1.18529	-0.0499142	0.955501	1.18334	-0.116194	0.742088	0.0479324	-0.231319	0.935386	1.04682	-0.276802	0.906392	0.383039	-0.272062	0.830293	0.362575	-0.214953	0.787191	0.246793	-0.278896	1.00703	0.845572	-0.155231	1.03857	0.692358	-0.190303	0.953072	0.616646	-0.201851	0.773706	0.0785736	-0.336153	1.08643	1.38294	-0.0852795	1.08781	1.29402	-0.102089	1.00236	1.29747	-0.0710647
204	1.84167	1.03772	1.52652	-0.309564	1.15096	1.44319	-0.304694	1.03701	1.5067	-0.483211	1.10339	1.01794	-0.438935	0.969619	0.31105	-0.380201	1.02218	1.14165	-0.53029	0.871095	1.26738	-0.563701	0.966622	1.10498	-0.548959	0.805361	1.31706	-0.544283	0.800181	1.31357	-0.469635	1.09673	0.156959	-0.458485	0.936984	1.05646	-0.375464	1.2763	0.487429	-0.420793	1.17907	0.434957	-0.46477	1.1405	0.34254	-0.4004	1.1006	0.872794	-0.508919	1.2204	0.834861	-0.484929	1.22904	0.695733	-0.484794	1.12821	0.176536	-0.359036	0.973094	1.46088	-0.522556	0.911954	1.4284	-0.4744	0.918548	1.37269	-0.540993	1.11183	1.47843	-0.130163	1.10102	1.00121	-0.201225	0.591895	0.207786	-0.299215	1.22345	1.11227	-0.141536	1.07777	1.1752	-0.0597399	1.19327	1.05165	-0.132554	0.981544	1.19437	-0.0479049	0.958564	1.19248	-0.114152	0.71952	0.0502385	-0.230783	0.938457	1.05356	-0.275325	0.893524	0.391616	-0.269044	0.816928	0.372137	-0.21186	0.774732	0.255216	-0.275052	1.00776	0.851887	-0.154903	1.03301	0.698105	-0.190546	0.944971	0.625402	-0.200336	0.753185	0.0800991	-0.33511	1.08941	1.39188	-0.085804	1.09047	1.30267	-0.102183	1.00551	1.30683	-0.0698474
205	1.85	1.03825	1.53254	-0.310265	1.15132	1.45014	-0.306192	1.0358	1.51308	-0.482732	1.10468	1.02595	-0.439531	0.994236	0.290691	-0.379108	1.0202	1.15233	-0.53122	0.867579	1.27687	-0.562566	0.964901	1.11514	-0.549485	0.802413	1.32632	-0.542018	0.798193	1.32309	-0.466882	1.13099	0.144267	-0.456286	0.938617	1.06412	-0.374076	1.28473	0.49094	-0.422307	1.19191	0.430828	-0.465377	1.16153	0.335433	-0.400857	1.10287	0.882298	-0.508702	1.2209	0.842344	-0.485262	1.22715	0.701346	-0.48318	1.16279	0.16892	-0.358196	0.971406	1.46917	-0.521693	0.91108	1.43716	-0.472725	0.915884	1.38162	-0.540142	1.11402	1.48632	-0.13189	1.10371	1.00633	-0.204203	0.583018	0.222446	-0.29556	1.22657	1.12655	-0.14471	1.08133	1.18657	-0.0597082	1.19884	1.06504	-0.134854	0.984913	1.20326	-0.0459962	0.961305	1.2015	-0.11221	0.698115	0.0538791	-0.229994	0.941307	1.06021	-0.274011	0.881923	0.400135	-0.266508	0.804961	0.381506	-0.20913	0.763337	0.263625	-0.271505	1.0083	0.857858	-0.154557	1.02792	0.70376	-0.190649	0.937627	0.633967	-0.199263	0.733412	0.0827544	-0.333694	1.09223	1.40072	-0.0863556	1.09299	1.31117	-0.102095	1.00837	1.31612	-0.0689445
